<svg width="73" height="73" viewBox="0 0 73 73" fill="none" xmlns="http://www.w3.org/2000/svg">
<circle cx="36.5" cy="4.97727" r="4.97727" fill="black"/>
<circle cx="20.7386" cy="9.20071" r="4.97727" transform="rotate(-30 20.7386 9.20071)" fill="black" fill-opacity="0.91"/>
<circle cx="52.2614" cy="9.20069" r="4.97727" transform="rotate(30 52.2614 9.20069)" fill="black" fill-opacity="0.08"/>
<circle cx="68.0227" cy="36.5" r="4.97727" transform="rotate(90 68.0227 36.5)" fill="black" fill-opacity="0.25"/>
<circle cx="63.7995" cy="20.7388" r="4.97727" transform="rotate(60 63.7995 20.7388)" fill="black" fill-opacity="0.16"/>
<circle cx="63.7995" cy="52.2615" r="4.97727" transform="rotate(120 63.7995 52.2615)" fill="black" fill-opacity="0.33"/>
<circle cx="36.5" cy="68.0227" r="4.97727" fill="black" fill-opacity="0.5"/>
<circle cx="52.2614" cy="63.7996" r="4.97727" transform="rotate(-30 52.2614 63.7996)" fill="black" fill-opacity="0.41"/>
<circle cx="20.7386" cy="63.7996" r="4.97727" transform="rotate(30 20.7386 63.7996)" fill="black" fill-opacity="0.58"/>
<circle cx="4.97726" cy="36.5" r="4.97727" transform="rotate(90 4.97726 36.5)" fill="black" fill-opacity="0.75"/>
<circle cx="9.20053" cy="52.2615" r="4.97727" transform="rotate(60 9.20053 52.2615)" fill="black" fill-opacity="0.66"/>
<circle cx="9.20049" cy="20.7388" r="4.97727" transform="rotate(120 9.20049 20.7388)" fill="black" fill-opacity="0.83"/>
</svg>
